<?xml version="1.0" standalone="no"?>
<!DOCTYPE svg PUBLIC "-//W3C//DTD SVG 20010904//EN"
 "http://www.w3.org/TR/2001/REC-SVG-20010904/DTD/svg10.dtd">
<svg version="1.0" xmlns="http://www.w3.org/2000/svg"
 width="698.000000pt" height="698.000000pt" viewBox="0 0 698.000000 698.000000"
 preserveAspectRatio="xMidYMid meet">
<metadata>
Created by potrace 1.14, written by Peter Selinger 2001-2017
</metadata>
<g transform="translate(0.000000,698.000000) scale(0.100000,-0.100000)"
fill="#000000" stroke="none">
<path d="M4090 6161 c0 -758 1 -802 18 -818 15 -15 100 -91 182 -163 9 -8 46
-41 81 -72 35 -31 75 -66 89 -78 14 -12 58 -51 98 -88 41 -36 82 -73 91 -81
10 -9 51 -45 92 -81 40 -36 98 -87 129 -114 30 -27 65 -58 76 -70 12 -11 31
-29 43 -39 24 -19 268 -234 287 -252 6 -5 43 -39 83 -75 40 -36 83 -74 95 -85
13 -11 51 -45 86 -75 35 -30 75 -66 90 -80 14 -14 62 -56 106 -95 43 -38 89
-79 102 -91 l23 -20 -113 -97 c-62 -53 -127 -109 -144 -124 -17 -15 -53 -47
-80 -70 -63 -53 -92 -78 -129 -111 -16 -15 -66 -58 -110 -95 -44 -38 -109 -94
-144 -126 -35 -31 -69 -60 -75 -66 -10 -9 -137 -118 -196 -169 -90 -76 -326
-282 -330 -286 -3 -3 -54 -48 -115 -100 -60 -52 -115 -99 -121 -104 -7 -6 -38
-33 -70 -61 -32 -27 -78 -68 -101 -90 l-43 -40 2 -817 3 -818 28 24 c16 13 61
53 100 88 40 36 119 106 177 158 58 51 121 107 140 124 19 17 73 65 120 106
47 41 87 77 90 80 3 3 41 37 85 75 89 78 142 125 159 140 6 6 90 80 186 165
96 85 177 157 180 160 3 3 38 35 79 70 41 36 82 72 91 80 9 8 46 42 84 75 37
33 78 69 90 80 12 11 55 49 96 85 41 36 84 74 96 85 12 11 53 47 90 80 38 33
114 101 170 150 137 122 240 214 283 252 82 71 108 94 255 223 l155 135 0 740
0 740 -62 53 c-34 29 -80 69 -102 88 -22 20 -71 64 -109 98 -39 33 -154 135
-256 226 -102 91 -217 192 -254 225 -38 33 -74 65 -80 70 -6 6 -51 47 -101 90
-49 44 -106 94 -125 111 -19 17 -141 125 -270 239 -129 114 -256 226 -281 249
-25 22 -77 69 -115 102 -107 95 -362 320 -436 387 -37 32 -78 68 -90 79 -13
11 -54 48 -93 82 -38 35 -131 116 -205 182 -74 65 -137 121 -140 124 -3 3 -13
11 -22 19 -17 13 -18 -26 -18 -788z"/>
<path d="M2969 6337 c-14 -12 -59 -51 -99 -87 -40 -36 -82 -73 -94 -83 -12
-10 -50 -44 -86 -76 -36 -32 -90 -80 -120 -106 -30 -26 -89 -78 -130 -115 -41
-37 -100 -89 -130 -116 -31 -27 -90 -80 -132 -117 -42 -37 -87 -77 -99 -88
-13 -11 -53 -46 -89 -78 -36 -32 -169 -150 -295 -262 -127 -112 -304 -269
-395 -349 -160 -141 -219 -193 -264 -235 -11 -11 -52 -47 -91 -80 -38 -33 -76
-67 -85 -75 -20 -18 -65 -59 -180 -160 -47 -41 -87 -77 -90 -80 -3 -3 -41 -37
-85 -75 -44 -39 -98 -86 -120 -106 -22 -20 -61 -54 -87 -75 -26 -22 -50 -47
-53 -57 -5 -13 -10 -1362 -6 -1454 1 -6 61 -65 133 -130 73 -65 135 -120 138
-123 3 -3 43 -39 90 -80 47 -41 99 -86 115 -101 43 -38 229 -202 309 -273 38
-34 74 -66 80 -71 21 -19 191 -170 225 -200 19 -17 39 -34 45 -40 6 -5 49 -44
96 -85 47 -41 90 -79 96 -85 6 -5 44 -39 84 -75 41 -36 117 -103 170 -150 52
-47 127 -112 164 -145 38 -33 81 -71 96 -85 14 -14 57 -52 95 -85 38 -33 77
-67 85 -75 9 -8 32 -28 51 -45 47 -41 213 -188 219 -195 3 -3 61 -54 130 -115
69 -60 141 -124 160 -141 19 -18 62 -56 95 -85 33 -29 62 -56 63 -61 19 -44
22 82 22 797 0 682 -2 805 -14 812 -8 4 -34 26 -58 47 -23 22 -66 60 -93 85
-28 25 -69 62 -91 81 -107 95 -210 186 -214 190 -3 3 -41 37 -85 75 -90 79
-88 77 -141 125 -21 19 -77 69 -124 110 -47 41 -87 77 -90 80 -3 3 -48 43
-100 90 -222 197 -254 225 -264 235 -10 10 -202 179 -352 311 -38 34 -86 77
-107 95 l-37 34 201 175 c111 96 218 189 238 205 34 29 104 90 166 144 17 14
64 55 105 91 41 36 77 67 80 70 3 3 86 75 185 160 99 85 182 157 185 160 3 3
57 50 120 105 63 55 151 131 195 170 106 92 189 163 247 211 l47 39 0 823 c1
452 0 822 -1 822 -2 0 -15 -10 -29 -23z"/>
</g>
</svg>
