<?xml version="1.0" standalone="no"?>
<!DOCTYPE svg PUBLIC "-//W3C//DTD SVG 20010904//EN"
 "http://www.w3.org/TR/2001/REC-SVG-20010904/DTD/svg10.dtd">
<svg version="1.0" xmlns="http://www.w3.org/2000/svg"
 width="801.000000pt" height="801.000000pt" viewBox="0 0 801.000000 801.000000"
 preserveAspectRatio="xMidYMid meet">
<metadata>
Created by potrace 1.14, written by Peter Selinger 2001-2017
</metadata>
<g transform="translate(0.000000,801.000000) scale(0.100000,-0.100000)"
fill="#000000" stroke="none">
<path d="M4550 6801 c0 -573 3 -735 13 -744 6 -7 46 -41 87 -77 41 -36 77 -67
80 -70 3 -3 115 -102 250 -219 135 -118 261 -228 280 -245 19 -17 179 -157
355 -311 176 -153 322 -282 325 -285 3 -3 23 -20 45 -39 22 -19 72 -62 110
-96 39 -34 126 -111 195 -171 69 -60 134 -117 145 -127 14 -13 20 -31 21 -63
0 -37 -4 -49 -25 -65 -14 -12 -42 -35 -61 -52 -19 -18 -69 -61 -110 -96 -41
-36 -79 -70 -85 -76 -5 -5 -59 -53 -120 -105 -60 -52 -115 -99 -121 -105 -14
-13 -133 -117 -199 -174 -27 -24 -63 -55 -80 -70 -16 -15 -91 -81 -165 -145
-74 -65 -164 -144 -200 -176 -36 -32 -180 -158 -320 -280 -140 -122 -286 -250
-324 -284 -38 -33 -75 -65 -82 -69 -12 -7 -14 -134 -14 -742 0 -652 4 -771 22
-727 3 8 66 66 194 178 38 33 139 123 224 199 217 192 216 192 305 270 44 38
85 74 91 80 6 5 41 37 79 70 37 33 73 65 79 70 6 6 108 96 226 200 118 104
217 192 220 195 3 4 122 109 265 235 143 126 262 232 265 235 3 3 38 35 79 70
41 36 82 72 91 80 20 18 68 61 180 160 47 41 103 91 125 111 54 48 232 206
278 246 l37 32 0 741 c0 407 -3 740 -7 740 -5 0 -29 20 -54 43 -25 23 -76 69
-113 102 -38 33 -78 69 -91 80 -12 11 -53 47 -90 80 -37 33 -73 65 -79 70 -6
6 -47 42 -91 80 -68 60 -100 88 -169 150 -6 6 -49 44 -96 85 -47 41 -87 77
-90 80 -3 3 -43 39 -90 80 -47 41 -90 79 -96 85 -6 5 -39 35 -74 65 -35 30
-75 66 -90 80 -15 14 -43 38 -61 54 -19 16 -54 48 -79 70 -25 23 -79 70 -120
106 -79 70 -154 136 -180 160 -9 8 -50 44 -90 80 -41 36 -117 103 -170 150
-130 115 -239 212 -260 230 -24 21 -161 143 -174 155 -6 6 -45 39 -86 75 -41
36 -82 72 -90 80 -14 14 -164 146 -202 178 -17 14 -18 -21 -18 -717z"/>
<path d="M3440 6909 c-8 -8 -53 -48 -100 -89 -47 -41 -103 -91 -125 -111 -22
-20 -87 -78 -145 -129 -58 -51 -121 -107 -140 -124 -19 -17 -73 -65 -120 -106
-86 -76 -144 -128 -186 -165 -12 -11 -53 -47 -90 -80 -92 -81 -343 -303 -429
-380 -38 -35 -87 -78 -109 -96 -21 -19 -51 -45 -66 -59 -15 -14 -55 -50 -90
-80 -88 -77 -88 -77 -175 -155 -44 -38 -102 -90 -130 -115 -28 -25 -86 -76
-130 -115 -43 -38 -102 -90 -130 -115 -103 -91 -195 -173 -384 -342 l-193
-173 1 -515 c0 -283 1 -614 2 -735 l0 -220 47 -39 c26 -21 70 -59 98 -85 27
-25 81 -73 120 -107 104 -92 443 -391 495 -438 25 -23 79 -70 119 -106 96 -84
264 -233 270 -240 3 -3 59 -52 125 -110 66 -58 125 -110 131 -115 6 -6 39 -35
74 -65 34 -30 74 -66 89 -80 14 -14 60 -54 101 -90 41 -36 77 -67 80 -70 3 -3
48 -43 100 -89 52 -46 127 -112 165 -146 39 -34 113 -100 165 -146 52 -46 100
-88 106 -94 6 -5 44 -39 84 -75 40 -36 78 -69 84 -75 6 -5 47 -41 91 -80 44
-38 95 -83 112 -99 18 -16 48 -42 66 -58 l32 -29 3 733 c2 667 1 734 -14 745
-9 7 -30 25 -48 40 -17 16 -87 77 -156 137 -69 60 -136 119 -150 132 -25 22
-218 192 -286 251 -38 33 -157 137 -209 183 -28 25 -82 72 -120 105 -146 127
-170 148 -175 154 -3 3 -36 33 -75 66 -38 33 -72 62 -75 65 -3 3 -39 34 -80
69 -41 36 -79 69 -85 75 -5 6 -41 38 -80 70 -38 33 -74 64 -80 70 -5 6 -41 38
-80 71 -38 33 -86 74 -105 92 -19 17 -47 41 -62 53 -40 31 -40 94 0 128 15 13
43 38 62 55 20 18 53 48 76 67 38 34 133 117 239 210 28 25 82 72 120 105 64
56 94 82 185 162 49 44 78 69 133 117 27 22 59 50 71 61 32 29 142 126 286
251 69 60 140 123 159 139 19 17 60 53 91 80 30 28 82 73 114 100 32 28 68 59
80 70 12 11 53 47 91 80 39 33 86 75 106 93 20 18 44 39 53 45 15 11 16 80 14
746 -3 653 -5 733 -18 720z"/>
</g>
</svg>
